<?xml version="1.0" standalone="no"?>
<!DOCTYPE svg PUBLIC "-//W3C//DTD SVG 20010904//EN"
 "http://www.w3.org/TR/2001/REC-SVG-20010904/DTD/svg10.dtd">
<svg version="1.0" xmlns="http://www.w3.org/2000/svg"
 width="512.000000pt" height="512.000000pt" viewBox="0 0 512.000000 512.000000"
 preserveAspectRatio="xMidYMid meet">

<g transform="translate(0.000000,512.000000) scale(0.100000,-0.100000)"
fill="#000000" stroke="none">
<path d="M592 2999 l3 -2121 983 -439 983 -439 982 438 982 439 3 2122 2 2121
-1970 0 -1970 0 2 -2121z m1738 1201 l0 -150 -140 0 -140 0 -2 -512 -3 -513
-150 0 -150 0 -3 513 -2 512 -140 0 -140 0 0 150 0 150 435 0 435 0 0 -150z
m931 113 c300 -99 493 -403 450 -711 -54 -383 -410 -642 -781 -568 -138 28
-239 83 -341 185 -70 70 -94 102 -127 171 -94 196 -94 394 0 590 33 70 56 100
127 170 111 109 213 164 359 190 82 15 222 3 313 -27z m74 -1598 c115 -30 203
-82 295 -175 129 -129 187 -256 197 -430 15 -273 -132 -517 -382 -636 -237
-114 -528 -69 -722 110 -418 387 -206 1059 362 1149 50 8 186 -2 250 -18z
m-1433 -6 c198 -41 350 -202 408 -433 24 -97 27 -277 5 -381 -20 -97 -92 -238
-154 -302 -55 -58 -131 -110 -201 -137 -52 -21 -314 -39 -496 -34 l-109 3 -3
648 -2 647 249 0 c144 0 273 -5 303 -11z"/>
<path d="M2960 4035 c-110 -31 -190 -99 -239 -204 -22 -48 -26 -70 -26 -146 0
-82 3 -97 32 -156 100 -203 344 -268 530 -143 144 98 196 286 124 449 -29 66
-111 148 -179 178 -74 34 -169 42 -242 22z"/>
<path d="M3085 2426 c-71 -18 -125 -48 -174 -97 -160 -161 -135 -431 51 -553
190 -125 431 -60 531 143 29 59 32 74 32 156 -1 100 -19 154 -76 226 -83 105
-237 158 -364 125z"/>
<path d="M1650 2075 l0 -345 92 0 c109 0 159 19 213 83 56 65 78 152 73 290
-3 94 -8 121 -29 167 -53 112 -117 149 -256 150 l-93 0 0 -345z"/>
</g>
</svg>
